<svg xmlns="http://www.w3.org/2000/svg" xmlns:xlink="http://www.w3.org/1999/xlink" width="500" zoomAndPan="magnify" viewBox="0 0 375 374.999991" height="500" preserveAspectRatio="xMidYMid meet" version="1.0"><path fill="#ffffff" d="M 186.253906 371.460938 C 181.539062 356.636719 164.265625 322.25 155.601562 310.4375 L 153.40625 307.441406 L 170.429688 273.367188 C 179.796875 254.625 187.570312 239.292969 187.710938 239.292969 C 188.039062 239.292969 221.660156 306.535156 221.660156 307.191406 C 221.660156 307.46875 220.222656 309.769531 218.46875 312.308594 C 209.820312 324.828125 194.703125 354.851562 189.414062 370.019531 C 188.519531 372.582031 187.699219 374.769531 187.59375 374.875 C 187.488281 374.980469 186.882812 373.445312 186.253906 371.460938 Z M 56.867188 315.742188 C 63.832031 301.835938 74.03125 271.5 77.367188 254.769531 L 78.710938 248.027344 L 114.613281 235.960938 C 134.359375 229.320312 150.664062 223.875 150.847656 223.851562 C 151.03125 223.832031 145.738281 240.144531 139.082031 260.105469 L 126.984375 296.402344 L 123.113281 297.054688 C 107.167969 299.746094 69.796875 312.238281 57.085938 319.125 L 54.460938 320.546875 Z M 315.523438 317.867188 C 302.375 311.25 270.261719 300.535156 254.859375 297.628906 C 251.839844 297.0625 249.113281 296.523438 248.800781 296.4375 C 248.285156 296.296875 223.972656 224.328125 224.324219 223.980469 C 224.671875 223.628906 296.636719 247.945312 296.765625 248.457031 C 296.84375 248.769531 297.421875 251.722656 298.046875 255.019531 C 300.921875 270.179688 311.976562 303.167969 318.582031 316.304688 C 319.648438 318.429688 320.355469 320.136719 320.144531 320.089844 C 319.9375 320.042969 317.855469 319.042969 315.523438 317.867188 Z M 64.71875 219.5 C 52.949219 210.769531 14.507812 191.542969 2.285156 188.273438 C 1.019531 187.9375 -0.0078125 187.539062 0 187.390625 C 0.0078125 187.242188 1.960938 186.492188 4.339844 185.726562 C 11.097656 183.554688 19.675781 179.8125 32.6875 173.367188 C 46.25 166.648438 54.816406 161.871094 62.28125 156.859375 C 65.105469 154.96875 67.632812 153.417969 67.898438 153.417969 C 68.546875 153.417969 135.785156 187.042969 135.785156 187.367188 C 135.785156 187.507812 120.453125 195.28125 101.710938 204.644531 L 67.636719 221.664062 Z M 273.207031 204.441406 C 254.742188 195.191406 239.632812 187.507812 239.632812 187.367188 C 239.632812 186.917969 307.324219 153.261719 307.8125 153.46875 C 308.070312 153.578125 310.867188 155.386719 314.023438 157.488281 C 327.480469 166.4375 355.019531 180.207031 369.753906 185.347656 C 372.191406 186.199219 374.523438 187.015625 374.933594 187.167969 C 375.347656 187.316406 373.78125 188.054688 371.4375 188.8125 C 357.425781 193.347656 325.457031 209.289062 312.652344 218.128906 C 310.109375 219.882812 307.753906 221.304688 307.410156 221.289062 C 307.066406 221.273438 291.675781 213.691406 273.207031 204.441406 Z M 114.59375 138.777344 L 78.675781 126.707031 L 77.3125 119.96875 C 73.929688 103.253906 64.699219 75.433594 57.683594 60.804688 L 54.570312 54.3125 L 59.355469 56.695312 C 73.0625 63.507812 104.746094 74.125 120.058594 77.03125 C 123.355469 77.65625 126.308594 78.234375 126.621094 78.3125 C 126.933594 78.390625 132.527344 94.480469 139.050781 114.066406 C 145.574219 133.648438 151.015625 149.953125 151.140625 150.296875 C 151.265625 150.640625 151.179688 150.90625 150.941406 150.882812 C 150.707031 150.863281 134.351562 145.414062 114.59375 138.777344 Z M 224.246094 150.382812 C 224.390625 149.992188 229.84375 133.648438 236.367188 114.066406 C 242.890625 94.480469 248.484375 78.386719 248.796875 78.296875 C 249.113281 78.210938 251.839844 77.675781 254.859375 77.105469 C 270.367188 74.183594 301.277344 63.878906 315.523438 56.882812 L 320.765625 54.308594 L 318.132812 59.554688 C 314.78125 66.234375 310.542969 77.0625 306.316406 89.761719 C 301.488281 104.273438 299.140625 113.121094 296.753906 125.792969 C 296.574219 126.746094 292.414062 128.25 260.976562 138.722656 C 241.414062 145.238281 225.085938 150.6875 224.695312 150.832031 C 224.230469 151.003906 224.074219 150.847656 224.246094 150.382812 Z M 170.4375 101.371094 L 153.414062 67.296875 L 156.800781 62.390625 C 165.59375 49.65625 180.578125 19.8125 186 4.238281 C 186.917969 1.605469 187.78125 -0.222656 187.921875 0.171875 C 188.0625 0.570312 188.933594 3.027344 189.855469 5.636719 C 195.246094 20.871094 208.574219 47.5 217.589844 61.054688 C 219.691406 64.210938 221.5 67.007812 221.609375 67.265625 C 221.816406 67.753906 188.160156 135.445312 187.710938 135.445312 C 187.570312 135.445312 179.796875 120.109375 170.4375 101.371094 Z M 170.4375 101.371094 " fill-opacity="1" fill-rule="nonzero"/></svg>